HIERARCHY
ROOT Hips
{
	OFFSET 0.000000 89.005402 0.000000
	CHANNELS 6 Xposition Yposition Zposition Xrotation Yrotation Zrotation
	JOINT Spine
	{
		OFFSET 0.116900 10.681000 0.373400
		CHANNELS 3 Xrotation Yrotation Zrotation
		JOINT Spine1
		{
			OFFSET 0.000000 13.840401 0.053500
			CHANNELS 3 Xrotation Yrotation Zrotation
			JOINT Spine2
			{
				OFFSET 0.000000 14.712700 -0.366200
				CHANNELS 3 Xrotation Yrotation Zrotation
				JOINT Neck
				{
					OFFSET 0.000000 35.415497 -3.314200
					CHANNELS 3 Xrotation Yrotation Zrotation
					JOINT Head
					{
						OFFSET 0.000000 16.899200 1.218300
						CHANNELS 3 Xrotation Yrotation Zrotation
						JOINT HeadTop_End
						{
							OFFSET 0.000000 22.206207 2.192500
							CHANNELS 3 Xrotation Yrotation Zrotation
							End Site
							{
								OFFSET 0.000000 22.314178 0.000000
							}
						}
					}
				}
				JOINT LeftShoulder
				{
					OFFSET 12.896400 26.716293 -4.548400
					CHANNELS 3 Xrotation Yrotation Zrotation
					JOINT LeftArm
					{
						OFFSET 19.027000 -4.857010 -1.718400
						CHANNELS 3 Xrotation Yrotation Zrotation
						JOINT LeftForeArm
						{
							OFFSET 24.179897 0.000000 0.000000
							CHANNELS 3 Xrotation Yrotation Zrotation
							JOINT LeftHand
							{
								OFFSET 27.156403 0.000000 0.000000
								CHANNELS 3 Xrotation Yrotation Zrotation
								JOINT LeftHandIndex1
								{
									OFFSET 16.441200 0.000000 0.000000
									CHANNELS 3 Xrotation Yrotation Zrotation
									JOINT LeftHandIndex2
									{
										OFFSET 4.821899 0.000000 0.000000
										CHANNELS 3 Xrotation Yrotation Zrotation
										JOINT LeftHandIndex3
										{
											OFFSET 6.386497 0.000000 0.000000
											CHANNELS 3 Xrotation Yrotation Zrotation
											JOINT LeftHandIndex4
											{
												OFFSET 5.188988 0.000000 0.000000
												CHANNELS 3 Xrotation Yrotation Zrotation
												End Site
												{
													OFFSET -0.178703 5.185913 0.000177
												}
											}
										}
									}
								}
								JOINT LeftHandThumb1
								{
									OFFSET 6.534897 -5.032593 5.900300
									CHANNELS 3 Xrotation Yrotation Zrotation
									JOINT LeftHandThumb2
									{
										OFFSET 3.818176 -2.204422 2.204423
										CHANNELS 3 Xrotation Yrotation Zrotation
										JOINT LeftHandThumb3
										{
											OFFSET 3.252098 -1.877594 1.877601
											CHANNELS 3 Xrotation Yrotation Zrotation
											JOINT LeftHandThumb4
											{
												OFFSET 5.251778 -3.032120 3.032117
												CHANNELS 3 Xrotation Yrotation Zrotation
												End Site
												{
													OFFSET 0.000023 6.780014 0.000000
												}
											}
										}
									}
								}
							}
						}
					}
				}
				JOINT RightShoulder
				{
					OFFSET -12.896300 26.716293 -4.548400
					CHANNELS 3 Xrotation Yrotation Zrotation
					JOINT RightArm
					{
						OFFSET -19.027000 -4.857010 -1.718400
						CHANNELS 3 Xrotation Yrotation Zrotation
						JOINT RightForeArm
						{
							OFFSET -24.179897 0.000000 0.000000
							CHANNELS 3 Xrotation Yrotation Zrotation
							JOINT RightHand
							{
								OFFSET -27.156403 0.000000 0.000000
								CHANNELS 3 Xrotation Yrotation Zrotation
								JOINT RightHandThumb1
								{
									OFFSET -6.591202 -4.852203 5.988100
									CHANNELS 3 Xrotation Yrotation Zrotation
									JOINT RightHandThumb2
									{
										OFFSET -3.818176 -2.204422 2.204423
										CHANNELS 3 Xrotation Yrotation Zrotation
										JOINT RightHandThumb3
										{
											OFFSET -3.252098 -1.877594 1.877601
											CHANNELS 3 Xrotation Yrotation Zrotation
											JOINT RightHandThumb4
											{
												OFFSET -5.251778 -3.032120 3.032117
												CHANNELS 3 Xrotation Yrotation Zrotation
												End Site
												{
													OFFSET -0.000023 6.780014 0.000000
												}
											}
										}
									}
								}
								JOINT RightHandIndex1
								{
									OFFSET -16.029404 0.000000 0.000000
									CHANNELS 3 Xrotation Yrotation Zrotation
									JOINT RightHandIndex2
									{
										OFFSET -5.213303 0.000000 0.000000
										CHANNELS 3 Xrotation Yrotation Zrotation
										JOINT RightHandIndex3
										{
											OFFSET -6.386528 0.000000 0.000000
											CHANNELS 3 Xrotation Yrotation Zrotation
											JOINT RightHandIndex4
											{
												OFFSET -5.189026 0.000000 0.000000
												CHANNELS 3 Xrotation Yrotation Zrotation
												End Site
												{
													OFFSET 0.236702 5.183624 0.001972
												}
											}
										}
									}
								}
							}
						}
					}
				}
			}
		}
	}
	JOINT LeftUpLeg
	{
		OFFSET 14.073000 -7.904099 -1.463000
		CHANNELS 3 Xrotation Yrotation Zrotation
		JOINT LeftLeg
		{
			OFFSET -0.109806 -34.073280 4.093200
			CHANNELS 3 Xrotation Yrotation Zrotation
			JOINT LeftFoot
			{
				OFFSET 0.109806 -29.899420 -6.319000
				CHANNELS 3 Xrotation Yrotation Zrotation
				JOINT LeftToeBase
				{
					OFFSET 1.551100 -14.988700 20.535801
					CHANNELS 3 Xrotation Yrotation Zrotation
					JOINT LeftToe_End
					{
						OFFSET 0.221200 0.570800 13.248301
						CHANNELS 3 Xrotation Yrotation Zrotation
						End Site
						{
							OFFSET 0.000000 13.262435 0.000000
						}
					}
				}
			}
		}
	}
	JOINT RightUpLeg
	{
		OFFSET -13.839300 -7.904099 -1.463000
		CHANNELS 3 Xrotation Yrotation Zrotation
		JOINT RightLeg
		{
			OFFSET 0.109694 -34.073219 4.093300
			CHANNELS 3 Xrotation Yrotation Zrotation
			JOINT RightFoot
			{
				OFFSET -0.109694 -29.899384 -6.319200
				CHANNELS 3 Xrotation Yrotation Zrotation
				JOINT RightToeBase
				{
					OFFSET -1.551100 -14.988700 20.535801
					CHANNELS 3 Xrotation Yrotation Zrotation
					JOINT RightToe_End
					{
						OFFSET -0.221200 0.570900 13.248299
						CHANNELS 3 Xrotation Yrotation Zrotation
						End Site
						{
							OFFSET 0.000000 13.262440 0.000000
						}
					}
				}
			}
		}
	}
}
MOTION
Frames: 5
Frame Time: 0.033333
5.201854 82.454132 36.081669 5.055470 -7.797182 -3.595045 3.567557 -1.062648 0.301533 7.142366 -2.044303 0.673338 7.142373 -2.044310 0.673339 4.654761 -2.707744 0.837867 6.019362 -10.606702 9.515913 -0.000001 -0.000001 0.000000 1.424956 -20.076498 -4.015170 -3.422210 13.096602 -70.850604 212.303699 -138.519474 202.162890 -6.802768 1.467554 52.042220 1.233808 6.960172 -34.930462 1.368606 4.304573 -42.163885 0.339806 1.790272 -22.427099 0.000002 0.000002 0.000000 10.847785 -4.304877 23.551056 -10.983177 15.030304 0.678245 -13.034362 -20.867314 -8.577104 0.000002 -0.000001 -0.000001 0.146082 13.048675 14.907141 0.610821 37.437267 54.405882 266.021935 165.949650 -256.979010 -8.682290 -25.762828 -22.374037 18.184562 1.036606 -11.026462 1.344412 -32.810135 3.239042 0.846816 -8.552193 -1.779295 -0.000002 -0.000004 0.000000 0.357767 -4.656519 7.860022 0.351329 -2.638954 20.566494 -0.192405 -0.050860 13.823325 -0.000000 0.000000 -0.000001 -20.509410 7.122654 6.997380 40.790204 18.228764 0.928850 -23.479240 2.705340 -10.249730 -0.055184 -0.019017 0.863272 -0.000000 -0.000002 0.000000 -22.182462 -5.731017 9.117405 30.340233 -5.112004 -0.301113 -13.194767 0.640228 -4.692784 -0.000002 0.000005 -0.000000 -0.000000 -0.000000 0.000000 
5.242487 82.452461 36.117733 4.940801 -8.149768 -3.577161 3.584417 -1.041600 0.329917 7.176402 -1.999338 0.729193 7.176406 -1.999342 0.729194 4.615018 -2.541768 0.774546 6.070561 -9.985889 8.929897 -0.000002 0.000001 -0.000000 1.402045 -20.009487 -4.147056 -3.515476 13.246319 -70.894071 211.958365 -138.714339 201.834344 -6.673904 1.189654 52.027480 1.233810 6.960172 -34.930469 1.368593 4.304585 -42.163898 0.339806 1.790287 -22.427088 -0.000001 0.000001 0.000001 10.847786 -4.304882 23.551056 -10.983180 15.030297 0.678246 -13.034354 -20.867310 -8.577097 0.000002 -0.000001 0.000000 0.157659 13.009548 14.791102 0.148286 36.953963 54.983310 266.623483 166.709290 -258.792207 -8.626350 -26.071022 -21.493753 18.184564 1.036614 -11.026461 1.344408 -32.810125 3.239040 0.846822 -8.552175 -1.779300 -0.000002 0.000002 0.000002 0.357770 -4.656533 7.860024 0.351335 -2.638938 20.566494 -0.192408 -0.050863 13.823318 -0.000000 -0.000000 -0.000001 -20.285047 7.234851 6.958012 40.797724 18.485589 0.942965 -23.506017 2.748978 -10.334028 -0.169942 -0.019869 0.833830 -0.000000 -0.000002 -0.000000 -22.089320 -5.753824 9.090850 30.390011 -4.737666 -0.281692 -13.183427 0.659813 -4.780790 -0.000000 -0.000002 -0.000000 0.000000 -0.000001 0.000000 
5.275690 82.445076 36.145775 4.915785 -8.357180 -3.592503 3.581789 -1.061593 0.350668 7.171749 -2.037137 0.774202 7.171746 -2.037133 0.774201 4.685767 -2.391997 0.841745 6.260507 -9.402788 8.540184 -0.000003 0.000000 -0.000000 1.393307 -20.034097 -4.214760 -3.395542 13.405532 -70.987420 211.701549 -138.752206 201.768241 -6.668333 1.040867 52.041189 1.233811 6.960175 -34.930451 1.368595 4.304569 -42.163885 0.339820 1.790276 -22.427099 0.000003 -0.000000 -0.000003 10.847794 -4.304881 23.551052 -10.983174 15.030292 0.678244 -13.034352 -20.867312 -8.577097 0.000002 -0.000000 0.000000 0.160700 12.999722 14.760633 -0.433905 36.718373 55.198874 266.827487 167.477577 -259.064485 -8.535595 -25.892433 -21.692923 18.184564 1.036607 -11.026463 1.344409 -32.810135 3.239044 0.846826 -8.552176 -1.779299 -0.000001 -0.000001 -0.000000 0.357769 -4.656525 7.860024 0.351334 -2.638931 20.566488 -0.192404 -0.050851 13.823322 0.000000 -0.000000 -0.000003 -20.234705 7.274953 6.962551 40.864230 18.636352 0.950950 -23.521286 2.772370 -10.382687 -0.282227 -0.020795 0.810241 0.000000 -0.000000 -0.000000 -22.072991 -5.756434 9.101787 30.409962 -4.538235 -0.271293 -13.170900 0.668518 -4.818345 -0.000003 0.000003 0.000000 -0.000000 0.000000 -0.000000 
5.295169 82.440636 36.165314 4.921967 -8.471611 -3.617354 3.574511 -1.101413 0.358966 7.157790 -2.115685 0.795138 7.157794 -2.115690 0.795139 4.826967 -2.290943 0.991720 6.489239 -8.981474 8.351866 0.000000 0.000000 -0.000000 1.401173 -20.133823 -4.195771 -3.159651 13.568225 -71.128846 211.462411 -138.675175 201.815055 -6.695803 0.980873 52.093371 1.233817 6.960183 -34.930465 1.368593 4.304573 -42.163885 0.339810 1.790278 -22.427093 -0.000000 -0.000001 -0.000001 10.847789 -4.304870 23.551059 -10.983173 15.030299 0.678241 -13.034364 -20.867329 -8.577098 0.000002 0.000002 0.000000 0.155440 12.933271 14.860465 -0.793276 37.134051 54.750011 266.450324 167.384331 -257.486575 -8.417119 -25.130616 -22.751959 18.184574 1.036597 -11.026466 1.344410 -32.810152 3.239059 0.846818 -8.552196 -1.779302 -0.000001 0.000002 -0.000000 0.357769 -4.656553 7.860021 0.351334 -2.638927 20.566488 -0.192407 -0.050854 13.823321 0.000000 -0.000000 0.000002 -20.235117 7.310310 6.994643 40.913308 18.681568 0.953231 -23.545665 2.787387 -10.409989 -0.336344 -0.021543 0.808150 0.000000 0.000000 -0.000000 -22.077752 -5.721311 9.134365 30.399618 -4.467003 -0.267495 -13.152580 0.670473 -4.824447 0.000003 -0.000002 -0.000001 -0.000000 0.000000 0.000000 
5.305991 82.439957 36.179405 4.917113 -8.564373 -3.643946 3.571582 -1.134174 0.355822 7.152249 -2.180810 0.792544 7.152258 -2.180812 0.792544 5.012318 -2.252280 1.162825 6.674032 -8.769244 8.289972 0.000000 0.000001 -0.000001 1.427204 -20.282330 -4.070953 -2.907955 13.700133 -71.323916 211.186936 -138.556234 201.833961 -6.695826 0.962080 52.186648 1.233812 6.960183 -34.930472 1.368592 4.304581 -42.163898 0.339817 1.790289 -22.427083 0.000001 0.000001 -0.000001 10.847786 -4.304865 23.551054 -10.983178 15.030294 0.678247 -13.034358 -20.867328 -8.577103 -0.000002 0.000001 -0.000001 0.146974 12.847453 15.009373 -0.560160 38.299405 53.631721 265.766841 166.867327 -255.099752 -8.374440 -24.392248 -24.088674 18.184573 1.036617 -11.026463 1.344407 -32.810125 3.239035 0.846822 -8.552190 -1.779303 0.000002 0.000001 -0.000001 0.357769 -4.656532 7.860024 0.351326 -2.638923 20.566487 -0.192404 -0.050878 13.823327 0.000000 -0.000000 0.000003 -20.204958 7.376893 7.039006 40.921914 18.674893 0.953000 -23.601394 2.804275 -10.429881 -0.313126 -0.021651 0.821592 -0.000000 -0.000002 -0.000000 -22.063273 -5.686211 9.172943 30.372526 -4.411569 -0.264500 -13.127922 0.672042 -4.833712 0.000001 0.000002 0.000002 -0.000000 0.000001 -0.000000 
